<?xml version="1.0" encoding="iso-8859-1"?>
<!-- Generator: Adobe Illustrator 19.0.0, SVG Export Plug-In . SVG Version: 6.00 Build 0)  -->
<svg version="1.1" id="Capa_1" xmlns="http://www.w3.org/2000/svg" xmlns:xlink="http://www.w3.org/1999/xlink" x="0px" y="0px"
	 viewBox="0 0 512 512" style="enable-background:new 0 0 512 512;" xml:space="preserve">
<circle style="fill:orange;" cx="255.998" cy="255.686" r="255.686"/>
<path style="fill:orange;" d="M369.055,485.063c84.502-41.728,142.633-128.757,142.633-229.377c0-21.798-2.736-42.956-7.868-63.157
	L389.862,78.57L121.524,97.485v104.58l-16.005,1.301l48.222,48.222l-6.941,4.098l41.863,41.863l-3.363,3.758L369.055,485.063z"/>
<rect x="116.2" y="103.543" style="fill:#FFFFFF;" width="10.654" height="70.875"/>
<circle style="fill:#F2D99C;" cx="163.142" cy="216.734" r="25.621"/>
<circle style="fill:#D3B981;" cx="342.921" cy="216.734" r="25.621"/>
<path style="fill:#F2D99C;" d="M384.36,368.519l-83.335-10.66c-10.23-1.308-17.895-10.016-17.895-20.329v-37.799H222.93v37.798
	c0,10.314-7.665,19.021-17.895,20.329l-83.335,10.66c-25.51,3.263-44.62,24.974-44.62,50.692v22.612
	c45.838,43.49,107.776,70.177,175.95,70.177s130.112-26.686,175.95-70.177V419.21C428.979,393.494,409.869,371.783,384.36,368.519z"
	/>
<path style="fill:#D3B981;" d="M384.36,368.519l-83.335-10.66c-10.23-1.308-17.895-10.016-17.895-20.329v-37.799h-30.148v212.267
	c0.016,0,0.032,0,0.048,0c68.174,0,130.112-26.686,175.95-70.177V419.21C428.979,393.494,409.869,371.783,384.36,368.519z"/>
<path style="fill:#FFECB3;" d="M302.131,315.415l-14.146,7.617c-21.736,11.704-47.898,11.704-69.634,0l-14.146-7.617
	c-26.122-14.066-42.412-41.338-42.412-71.007v-87.252h182.748v87.252C344.543,274.077,328.253,301.35,302.131,315.415z"/>
<path style="fill:#FFD863;" d="M344.543,157.157h-91.561v174.65c12.037,0.031,24.079-2.892,35.004-8.775l14.146-7.617
	c26.122-14.066,42.412-41.338,42.412-71.007L344.543,157.157L344.543,157.157z"/>
<path style="fill:#333333;" d="M384.36,368.519l-70.529-9.022c-15.206,16.221-36.813,26.37-60.8,26.37s-45.595-10.15-60.8-26.37
	l-70.529,9.022c-25.51,3.263-44.62,24.974-44.62,50.692v22.612C122.918,485.313,184.856,512,253.031,512
	s130.112-26.686,175.95-70.177v-22.612C428.979,393.494,409.869,371.783,384.36,368.519z"/>
<path style="fill:#1A1A1A;" d="M384.36,368.519l-70.529-9.022c-15.206,16.221-36.813,26.37-60.8,26.37v126.132
	c68.174,0,130.112-26.686,175.95-70.177V419.21C428.979,393.494,409.869,371.783,384.36,368.519z"/>
<path style="fill:#FF9451;" d="M343.487,255.686h16.05v-71.82c0-58.872-47.826-93.886-106.746-93.682
	c-58.788,0.204-105.993,36.048-105.993,94.836v70.665h14.995v-26.301c69.595,9.014,124.682-53.434,124.682-53.434
	s24.149,49.132,57.011,57.429v22.306H343.487z"/>
<path style="fill:#F7674F;" d="M252.983,90.185v114.053c20.836-13.946,33.494-28.288,33.494-28.288s24.149,49.132,57.011,57.429
	v22.307h16.05v-71.82C359.538,125.058,311.813,90.057,252.983,90.185z"/>
<rect x="143.496" y="103.543" style="fill:#333333;" width="219.061" height="95.882"/>
<g>
	<rect x="252.982" y="103.543" style="fill:#1A1A1A;" width="109.575" height="95.882"/>
	<rect x="116.2" y="78.573" style="fill:#1A1A1A;" width="273.664" height="29.963"/>
</g>
<rect x="252.982" y="78.573" width="136.882" height="29.963"/>
<polygon style="fill:#333333;" points="137.531,203.366 105.519,203.366 116.198,174.415 126.852,174.415 "/>
<g>
</g>
<g>
</g>
<g>
</g>
<g>
</g>
<g>
</g>
<g>
</g>
<g>
</g>
<g>
</g>
<g>
</g>
<g>
</g>
<g>
</g>
<g>
</g>
<g>
</g>
<g>
</g>
<g>
</g>
</svg>
